<svg width="9" height="9" viewBox="0 0 9 9" fill="none" xmlns="http://www.w3.org/2000/svg">
<path d="M8.99999 1.01824C8.99999 0.841426 8.92975 0.671857 8.80473 0.546833C8.6797 0.421808 8.51013 0.351571 8.33332 0.351571L2.99999 0.318237C2.82318 0.318237 2.65361 0.388475 2.52859 0.5135C2.40356 0.638524 2.33332 0.808093 2.33332 0.984904C2.33332 1.16171 2.40356 1.33128 2.52859 1.45631C2.65361 1.58133 2.82318 1.65157 2.99999 1.65157H6.70666L1.19332 7.17824C1.13084 7.24021 1.08124 7.31395 1.0474 7.39519C1.01355 7.47643 0.996124 7.56356 0.996124 7.65157C0.996124 7.73958 1.01355 7.82671 1.0474 7.90795C1.08124 7.98919 1.13084 8.06293 1.19332 8.1249C1.2553 8.18739 1.32903 8.23699 1.41027 8.27083C1.49151 8.30468 1.57865 8.3221 1.66666 8.3221C1.75466 8.3221 1.8418 8.30468 1.92304 8.27083C2.00428 8.23699 2.07801 8.18739 2.13999 8.1249L7.66666 2.59824V6.31824C7.66666 6.49505 7.73689 6.66462 7.86192 6.78964C7.98694 6.91467 8.15651 6.9849 8.33332 6.9849C8.51013 6.9849 8.6797 6.91467 8.80473 6.78964C8.92975 6.66462 8.99999 6.49505 8.99999 6.31824V1.01824Z" fill="#5449D6"/>
</svg>
